<mxfile host="app.diagrams.net" modified="2023-10-28T12:39:18.809Z" agent="Mozilla/5.0 (Windows NT 10.0; Win64; x64) AppleWebKit/537.36 (KHTML, like Gecko) Chrome/117.0.0.0 Safari/537.36" version="22.0.8" etag="hhKPzOr9AmqmtNbWuWB7" type="github">
  <diagram name="Page-1" id="wDX3kBY9RKzZgaC6zRas">
    <mxGraphModel>
      <root>
        <mxCell id="0" />
        <mxCell id="1" parent="0" />
      </root>
    </mxGraphModel>
  </diagram>
</mxfile>
